<svg xmlns="http://www.w3.org/2000/svg" version="1.1" xmlns:xlink="http://www.w3.org/1999/xlink" xmlns:svgjs="http://svgjs.com/svgjs" width="512" height="512"><svg version="1.1" id="SvgjsSvg1000" xmlns="http://www.w3.org/2000/svg" xmlns:xlink="http://www.w3.org/1999/xlink" x="0px" y="0px" viewBox="0 0 512 512" style="enable-background:new 0 0 512 512;" xml:space="preserve">
<style type="text/css">
	.st0{fill:#FFFFFF;}
	.st1{fill:#002768;}
	.st2{fill:#EF2B2D;}
</style>
<g>
	<circle class="st0" cx="256" cy="256" r="254.9"></circle>
	<path class="st1" d="M134.4,283.9c-44.1,0-87.8,0-131.8,0c-2.1-18.7-2-37.2,0-56c43.9,0,87.8,0,131.9,0c0-65.6,0-130.9,0-196.2
		c18-9.7,36.6-17.1,56.5-22.3c0,72.9,0,145.5,0,218.4c6.4,0.1,12.6,0,18.8,0c6.2,0,12.5,0,18.7,0c6.3,0,12.6,0,18.9,0
		c6.2,0,12.5,0,18.7,0s12.5,0,18.7,0c6.2,0,12.5,0,18.7,0c6.2,0,12.5,0,18.7,0c6.2,0,12.5,0,18.7,0c6.3,0,12.6,0,18.9,0
		c6.2,0,12.5,0,18.7,0c6.2,0,12.5,0,18.7,0c6.2,0,12.5,0,18.7,0c6.2,0,12.5,0,18.7,0c6.2,0,12.5,0,18.7,0c6.3,0,12.6,0,18.9,0
		c6.2,0,12.5,0,18.7,0c6.2,0,12.4,0,18.8,0c2.1,18.7,2,37.1,0.1,55.8c-0.6,0.1-1.2,0.2-1.7,0.2c-0.7,0-1.5,0-2.2,0
		c-103.6,0-207.3,0-310.9,0c-1.1,0-2.2,0-3.6,0c0,6.8,0,13.4,0,19.9c0,6.7,0,13.3,0,20c0,6.6,0,13.2,0,19.8c0,6.6,0,13.2,0,19.8
		c0,6.6,0,13.2,0,19.8c0,6.7,0,13.3,0,20c0,6.6,0,13.2,0,19.8c0,6.6,0,13.2,0,19.8c0,6.6,0,13.2,0,19.8c0,6.7,0,13.3,0,20
		c0,6.6,0,13.1,0,20c-2-0.5-3.7-0.9-5.4-1.4c-16.9-4.9-33.2-11.4-48.8-19.6c-0.5-0.2-0.9-0.5-1.4-0.7c-0.8-0.3-1.1-0.9-1.1-1.8
		c0-0.8,0-1.6,0-2.4c0-62.9,0-125.9,0-188.8C134.4,286.6,134.4,285.5,134.4,283.9z"></path>
	<path class="st2" d="M504.2,314.7c-9.7,40.1-27.6,75.9-54.3,107.1c-33.6,39.2-75.3,65.8-125,79.7c-34.2,9.6-68.9,11.7-104.2,6.9
		c0-64.7,0-129.1,0-193.7C315.1,314.7,409.4,314.7,504.2,314.7z"></path>
	<path class="st2" d="M220.8,3.5c36-4.9,71.6-2.6,106.5,7.8c53.2,15.8,97,45.7,131,89.6c22.2,28.6,37.2,60.7,45.8,96.1
		c-94.6,0-188.9,0-283.1,0C220.5,195.4,220.3,7.2,220.8,3.5z"></path>
	<path class="st2" d="M7.9,197.4c8.3-34.7,23-66.1,44.2-94.5C66.8,83.2,84,66.1,104,51.3c0,49,0,97.5,0,146.1
		C72,197.4,40.2,197.4,7.9,197.4z"></path>
	<path class="st2" d="M8,315.1c32.2,0,64,0,95.8,0c0.5,1.7,0.7,141.3,0.2,145.2c-4.9-1.3-31.6-26.2-43.9-41
		C34.7,388.6,17.4,354,8,315.1z"></path>
</g>
</svg><style>@media (prefers-color-scheme: light) { :root { filter: none; } }
</style></svg>